/vscmnt/brussel_pixiu_data/_data_brussel/112/vsc11236/PredSimResults/SUBJ04mtu3D/worker5.mot
version=1
nRows=8
nColumns=50
inDegrees=yes
endheader
                time	         pelvis_tilt	         pelvis_list	     pelvis_rotation	           pelvis_tx	           pelvis_ty	           pelvis_tz	       hip_flexion_r	     hip_adduction_r	      hip_rotation_r	        knee_angle_r	       ankle_angle_r	         mtp_angle_r	       hip_flexion_l	     hip_adduction_l	      hip_rotation_l	        knee_angle_l	       ankle_angle_l	         mtp_angle_l	    lumbar_extension	      lumbar_bending	     lumbar_rotation	 ercspn_r/activation	 intobl_r/activation	 extobl_r/activation	    abd_r/activation	    add_r/activation	hamstrings_r/activation	bifemsh_r/activation	glut_max_r/activation	iliopsoas_r/activation	rect_fem_r/activation	  vasti_r/activation	gastroc_r/activation	 soleus_r/activation	tib_ant_r/activation	 ercspn_l/activation	 intobl_l/activation	 extobl_l/activation	    abd_l/activation	    add_l/activation	hamstrings_l/activation	bifemsh_l/activation	glut_max_l/activation	iliopsoas_l/activation	rect_fem_l/activation	  vasti_l/activation	gastroc_l/activation	 soleus_l/activation	tib_ant_l/activation	
          0.00000000	          1.09515326	         -6.14527116	          8.18112357	          0.00000000	          0.87512066	         -0.00226549	         44.07720477	          7.62433834	         -1.21443892	        -56.52520372	        -10.54762491	          0.72100969	          9.69280688	         -3.16597303	          6.39749421	        -57.15534663	         -8.59404262	         60.15958223	        -14.73906236	          4.56485873	          0.03498111	          0.14489402	          0.15901887	          0.01152821	          0.02649677	          0.07913365	          0.01000876	          0.03280091	          0.09980947	          0.30367392	          0.31778646	          0.17942283	          0.01150206	          0.05442517	          0.86304497	          0.10910709	          0.01000054	          0.01000060	          0.01926519	          0.02060197	          0.01000135	          0.01000603	          0.02979707	          0.33097869	          0.99994009	          0.48039730	          0.01118447	          0.05453691	          0.60537411	
          0.01025953	          0.92127704	         -6.22301000	          8.26253391	          0.01169713	          0.87292734	         -0.00192609	         43.28748841	          8.19257520	         -0.29949361	        -56.64524346	         -9.67806616	          2.41534227	          9.18297362	         -3.75638122	          5.35663001	        -57.17812440	         -8.55286356	         60.13164836	        -14.35719456	          4.90129574	         -0.28976572	          0.12826329	          0.18956833	          0.01000066	          0.04398273	          0.06912738	          0.01000481	          0.02801155	          0.11572368	          0.28195094	          0.27138268	          0.24321664	          0.01084975	          0.05350900	          0.73703905	          0.13126876	          0.01000046	          0.01000108	          0.01651636	          0.03365438	          0.01000207	          0.01000678	          0.03894766	          0.28264840	          0.99996185	          0.45928343	          0.01175109	          0.05522355	          0.61707155	
          0.02051906	          0.73653359	         -6.26921807	          8.30740889	          0.02351537	          0.87076991	         -0.00156763	         42.40500327	          8.71132540	          0.59073591	        -56.76381468	         -8.89654804	          5.33394534	          8.65244645	         -4.30129650	          4.31623201	        -57.18439500	         -8.54962126	         59.99553049	        -13.96023817	          5.20586860	         -0.62654499	          0.12919661	          0.21701772	          0.01000085	          0.07655628	          0.07143430	          0.01005778	          0.02392161	          0.12141001	          0.26500158	          0.23175485	          0.29164413	          0.01027501	          0.05259513	          0.62941522	          0.14886107	          0.01000042	          0.01000105	          0.01525653	          0.04729149	          0.01000259	          0.01000919	          0.04376809	          0.24137543	          0.99997322	          0.43900144	          0.01189141	          0.05578746	          0.63588784	
          0.03077858	          0.54197002	         -6.28280181	          8.30596811	          0.03531827	          0.86875681	         -0.00120341	         41.49241456	          9.16693118	          1.42811041	        -56.86712225	         -8.21318018	          8.97066374	          8.11622404	         -4.78996207	          3.28403134	        -57.18482352	         -8.58604926	         59.67633888	        -13.56812091	          5.48271201	         -0.97162036	          0.13268492	          0.23977829	          0.01000058	          0.09864975	          0.07505254	          0.01052131	          0.02042896	          0.12899522	          0.25377860	          0.19791355	          0.32569034	          0.01000507	          0.05142753	          0.54020732	          0.16672517	          0.01000039	          0.01000094	          0.01574680	          0.06411821	          0.01000227	          0.01000461	          0.04778809	          0.20612924	          0.99997941	          0.41994389	          0.01204606	          0.05672001	          0.66010923	
          0.04103811	          0.33955426	         -6.26357529	          8.25228398	          0.04703148	          0.86696098	         -0.00084866	         40.58780655	          9.56245330	          2.20739769	        -56.94775178	         -7.68942202	         13.02092060	          7.57153404	         -5.21507961	          2.26691247	        -57.17119774	         -8.64734032	         59.12841234	        -13.19252740	          5.73707915	         -1.32289569	          0.13610276	          0.25838689	          0.01000085	          0.11089026	          0.07730180	          0.01199795	          0.01744645	          0.13461715	          0.26071604	          0.16901383	          0.35120488	          0.01003944	          0.05087801	          0.48767324	          0.18184530	          0.01000057	          0.01000185	          0.01820564	          0.08113281	          0.01000429	          0.01005029	          0.05150016	          0.17602980	          0.99998319	          0.40341210	          0.01250325	          0.05868482	          0.68899996	
          0.05129764	          0.13171527	         -6.21202379	          8.14202088	          0.05862626	          0.86542403	         -0.00051939	         39.71064566	          9.90372557	          2.93300086	        -57.00470230	         -7.29648380	         17.15029109	          7.00287336	         -5.57313137	          1.26435740	        -57.12037237	         -8.71177174	         58.33764693	        -12.83924390	          5.97436481	         -1.67848642	          0.13991143	          0.27666551	          0.01000051	          0.11884577	          0.07918703	          0.01336632	          0.01489967	          0.13779605	          0.23769184	          0.14433411	          0.37059177	          0.01003867	          0.04865942	          0.45291472	          0.19722266	          0.01000038	          0.01000114	          0.02398807	          0.09889126	          0.01000227	          0.01000547	          0.05532681	          0.15032556	          0.99998689	          0.38632201	          0.01208246	          0.05704938	          0.71940290	
          0.06155717	         -0.07886257	         -6.12909493	          7.97124809	          0.07010147	          0.86416574	         -0.00023069	         38.87066320	         10.19536803	          3.60670180	        -57.04594854	         -6.98504444	         21.10130267	          6.39089761	         -5.86339473	          0.26720456	        -57.00548677	         -8.76172935	         57.31406112	        -12.51034649	          6.19977692	         -2.03613934	          0.14546365	          0.28954863	          0.01000051	          0.13160918	          0.08508918	          0.01626415	          0.01272533	          0.13932029	          0.21776517	          0.12325817	          0.38684102	          0.01000275	          0.04695600	          0.42583675	          0.21438811	          0.01000038	          0.01000137	          0.03400308	          0.11647657	          0.01000268	          0.01000887	          0.05669077	          0.12837472	          0.99998921	          0.36623753	          0.01152990	          0.05601618	          0.74956955	
          0.07181670	         -0.28941571	         -6.01594696	          7.73599554	          0.08146412	          0.86319670	          0.00000613	         38.07674866	         10.43878132	          4.21972036	        -57.08860412	         -6.67824107	         24.61377287	          5.72470064	         -6.08661495	         -0.73825434	        -56.81173820	         -8.79531024	         56.07690100	        -12.20632004	          6.41756796	         -2.39233908	          0.15108212	          0.27684399	          0.01000043	          0.15930287	          0.10268797	          0.02048810	          0.01086981	          0.15067461	          0.18900333	          0.10525978	          0.40462234	          0.01066943	          0.04729254	          0.39511313	          0.23510352	          0.01000033	          0.01000141	          0.04138330	          0.12588106	          0.01000237	          0.01000513	          0.05056870	          0.10962922	          0.99999052	          0.33933767	          0.01076749	          0.05517881	          0.77720007	
